<svg xmlns="http://www.w3.org/2000/svg" width="320" height="320" viewBox="0 0 320 320">
  <metadata><?xpacket begin="﻿" id="W5M0MpCehiHzreSzNTczkc9d"?>
<x:xmpmeta xmlns:x="adobe:ns:meta/" x:xmptk="Adobe XMP Core 5.6-c138 79.159824, 2016/09/14-01:09:01        ">
   <rdf:RDF xmlns:rdf="http://www.w3.org/1999/02/22-rdf-syntax-ns#">
      <rdf:Description rdf:about=""/>
   </rdf:RDF>
</x:xmpmeta>
                                                                                                    
                                                                                                    
                                                                                                    
                                                                                                    
                                                                                                    
                                                                                                    
                                                                                                    
                                                                                                    
                                                                                                    
                                                                                                    
                                                                                                    
                                                                                                    
                                                                                                    
                                                                                                    
                                                                                                    
                                                                                                    
                                                                                                    
                                                                                                    
                                                                                                    
                                                                                                    
                           
<?xpacket end="w"?></metadata>
<defs>
    <style>
      .cls-1 {
        fill: #4fb7e5;
      }

      .cls-2, .cls-3 {
        fill: #fff;
        fill-rule: evenodd;
      }

      .cls-2 {
        stroke: #fff;
        stroke-width: 3px;
      }
    </style>
  </defs>
  <circle class="cls-1" cx="160" cy="160" r="160"/>
  <path class="cls-2" d="M138,57a70.588,70.588,0,0,1,23,4c14.587-7.9,119.359-11.362,120,72-0.141,6.4,6.052,47.126-58,74l6,21-15-13-13,9,48,38-3-20-5-28s52.684-23.42,54-79c1.428-60.276-55.595-101.857-128-87C147.386,51.385,138,57,138,57Z"/>
  <path class="cls-3" d="M126,65s102.649,3.285,105,87-109.357,87.848-109,88c-0.173-.1-9,0-9,0L79,264l-7,5,4-38s-55.6-15.722-55-80C22.754,61.822,126,65,126,65Zm-1,14c-34.629.489-89.284,20.765-89,73,0.7,57.889,55.771,70.861,56,71s-3,17-3,17l19-13s26.018,0.26,31-1,78.034-17.094,77-71C213.962,105.274,164.653,78.685,125,79Z"/>
  <path id="FAQs" class="cls-3" d="M56.8,176.965H71.6V153.058h9.141V142.23H71.6V131.437H81.868v-11.39H56.8v56.918Zm33.563-56.918-7.55,56.918h15.3l0.89-10.231H104.3l0.8,10.231h15.126l-8.464-56.918H90.365Zm8.453,36.6q0.578-7.557,2.84-23.906,1.131,14.237,2.255,23.906h-5.1Zm54.8,20.321a6.6,6.6,0,0,1-3.252-.5,3.2,3.2,0,0,1-.791-2.406,14.853,14.853,0,0,0,5.572-2.443,7.839,7.839,0,0,0,2.83-4.305q0.739-2.706.739-10.3V138.533a44.186,44.186,0,0,0-.58-8.312,13.276,13.276,0,0,0-8.3-9.683A22.011,22.011,0,0,0,141,118.851a19.724,19.724,0,0,0-7.488,1.371,13.332,13.332,0,0,0-5.52,4.061,14.122,14.122,0,0,0-2.83,5.73,42.967,42.967,0,0,0-.685,8.842v17.614q0,7.663,1.16,11.513a11.691,11.691,0,0,0,4.781,6.346,15.661,15.661,0,0,0,8.648,2.637,11.546,11.546,0,0,0,.58,4.416,3.788,3.788,0,0,0,2.233,1.85,18,18,0,0,0,5.695.624h11.18v-6.89h-5.133Zm-9.7-16.137a28.162,28.162,0,0,1-.422,6.363,1.82,1.82,0,0,1-1.933,1.336,1.763,1.763,0,0,1-1.881-1.16,26.09,26.09,0,0,1-.405-6.117V134.672q0-4.4.616-5.291a2.019,2.019,0,0,1,1.775-.9,1.751,1.751,0,0,1,1.811,1.108,17.675,17.675,0,0,1,.439,5.08v26.156Zm51.062-18.317a26.022,26.022,0,0,0-.369-5.167,8.352,8.352,0,0,0-2.109-3.586,12.135,12.135,0,0,0-4.992-3.112,23.3,23.3,0,0,0-7.893-1.177,21.621,21.621,0,0,0-8.209,1.441,9.591,9.591,0,0,0-5.01,4.1q-1.476,2.655-1.476,8.244a15.616,15.616,0,0,0,1.371,6.8q1.371,2.867,7.629,6.381,7.452,4.149,8.261,4.993,0.774,0.843.774,4.183a5.653,5.653,0,0,1-.6,3.182,2.549,2.549,0,0,1-2.109.756,1.84,1.84,0,0,1-1.881-1.125,15.544,15.544,0,0,1-.475-4.887v-2.953H165.305v2.25q0,5.837,1.442,8.719a10.116,10.116,0,0,0,5.291,4.57,22.989,22.989,0,0,0,9.264,1.687,20.2,20.2,0,0,0,8.349-1.564,9.82,9.82,0,0,0,4.94-4.465q1.476-2.9,1.476-8.6,0-5.1-1.933-7.769t-8.122-5.695a39.04,39.04,0,0,1-6.134-3.481,4.968,4.968,0,0,1-1.793-2.2,11.959,11.959,0,0,1-.3-3.147,3.911,3.911,0,0,1,.6-2.373,2.1,2.1,0,0,1,1.793-.791,1.783,1.783,0,0,1,1.845.862,13.477,13.477,0,0,1,.369,4.095v2.532h12.586v-2.708Z"/>
</svg>
