<svg xmlns="http://www.w3.org/2000/svg" width="320" height="320" viewBox="0 0 320 320">
  <metadata><?xpacket begin="﻿" id="W5M0MpCehiHzreSzNTczkc9d"?>
<x:xmpmeta xmlns:x="adobe:ns:meta/" x:xmptk="Adobe XMP Core 5.6-c138 79.159824, 2016/09/14-01:09:01        ">
   <rdf:RDF xmlns:rdf="http://www.w3.org/1999/02/22-rdf-syntax-ns#">
      <rdf:Description rdf:about=""/>
   </rdf:RDF>
</x:xmpmeta>
                                                                                                    
                                                                                                    
                                                                                                    
                                                                                                    
                                                                                                    
                                                                                                    
                                                                                                    
                                                                                                    
                                                                                                    
                                                                                                    
                                                                                                    
                                                                                                    
                                                                                                    
                                                                                                    
                                                                                                    
                                                                                                    
                                                                                                    
                                                                                                    
                                                                                                    
                                                                                                    
                           
<?xpacket end="w"?></metadata>
<defs>
    <style>
      .cls-1 {
        fill: #4fb7e5;
      }

      .cls-2 {
        fill: none;
        stroke: #fff;
        stroke-width: 14.69px;
      }

      .cls-2, .cls-3 {
        fill-rule: evenodd;
      }

      .cls-3 {
        fill: #fff;
      }
    </style>
  </defs>
  <circle class="cls-1" cx="160" cy="160" r="160"/>
  <path id="Polygon_1" data-name="Polygon 1" class="cls-2" d="M276.949,227.411l-43.143,6.3-6.234,43.152L187.061,260.74l-26.974,34.253-27.024-34.214L92.575,276.956l-6.3-43.143-43.151-6.234,16.118-40.511L24.993,160.094,59.207,133.07,43.031,92.582l43.143-6.3,6.234-43.151,40.511,16.118L159.893,25l27.024,34.214L227.4,43.038l6.3,43.143,43.152,6.234-16.119,40.511L294.986,159.9l-34.214,27.024Z"/>
  <path id="NEW" class="cls-3" d="M109.409,126.962v29.7l-9.613-29.7H85.457v65.949H99.8V162.93l8.921,29.981h15.031V126.962H109.409Zm23.726,65.949h29.736v-13.2H150.284v-14.5H161V152.665H150.284v-12.5h11.447v-13.2h-28.6v65.949Zm85.072-65.949q-3.322,22.9-4.786,46.845l-1.894-25.093q-1.517-18.86-1.871-21.752H191.848q-3.794,27.989-4.742,45.256l-1.752-22.246-1.812-23.01H166.881l7.677,65.949h21.289q3.757-26.271,4.783-34.584,2.25,19.386,5.191,34.584h21.411l7.636-65.949H218.207Z"/>
</svg>
