<svg xmlns="http://www.w3.org/2000/svg" width="320" height="320" viewBox="0 0 320 320">
  <metadata><?xpacket begin="﻿" id="W5M0MpCehiHzreSzNTczkc9d"?>
<x:xmpmeta xmlns:x="adobe:ns:meta/" x:xmptk="Adobe XMP Core 5.6-c138 79.159824, 2016/09/14-01:09:01        ">
   <rdf:RDF xmlns:rdf="http://www.w3.org/1999/02/22-rdf-syntax-ns#">
      <rdf:Description rdf:about=""/>
   </rdf:RDF>
</x:xmpmeta>
                                                                                                    
                                                                                                    
                                                                                                    
                                                                                                    
                                                                                                    
                                                                                                    
                                                                                                    
                                                                                                    
                                                                                                    
                                                                                                    
                                                                                                    
                                                                                                    
                                                                                                    
                                                                                                    
                                                                                                    
                                                                                                    
                                                                                                    
                                                                                                    
                                                                                                    
                                                                                                    
                           
<?xpacket end="w"?></metadata>
<defs>
    <style>
      .cls-1 {
        fill: #4fb7e5;
      }

      .cls-2 {
        fill: #fff;
        fill-rule: evenodd;
      }
    </style>
  </defs>
  <circle class="cls-1" cx="160" cy="160" r="160"/>
  <path class="cls-2" d="M98,150.25v-10H202v10H98Zm0,27.25v-10h78v10H98Zm0,27.25v-10h97v10H98ZM98,232V222h65v10H98Zm0-109V113h53v10H98Z"/>
  <path class="cls-2" d="M159,23c-8.93-.061-21.9,5.516-22,22s0,21,0,21-28.148,1.9-28,24c-0.261,5.259,4,4,4,4h95s3,0.055,3-4-1.67-23.3-28-24c0,0.008-.138-19.775,0-20C182.583,28.439,167.93,23.061,159,23Zm0,12a9,9,0,1,1-9,9A9,9,0,0,1,159,35Z"/>
  <path class="cls-2" d="M252.658,69V250c0,24.039-22.913,23-22.913,23H91s-23,1.039-23-23V69S63.162,42,90,42h26a3.771,3.771,0,0,1,4,4v7s-0.116,8-8,8H91s-7,.153-7,8V250s-0.263,5,7,5H229.745c7.236,0,6.973-5,6.973-5V69c0-7.847-6.973-8-6.973-8h-20.92c-7.854,0-7.97-8-7.97-8V46a3.761,3.761,0,0,1,3.985-4h25.9C257.477,42,252.658,69,252.658,69Z"/>
</svg>
