<svg xmlns="http://www.w3.org/2000/svg" width="320" height="320" viewBox="0 0 320 320">
  <metadata><?xpacket begin="﻿" id="W5M0MpCehiHzreSzNTczkc9d"?>
<x:xmpmeta xmlns:x="adobe:ns:meta/" x:xmptk="Adobe XMP Core 5.6-c138 79.159824, 2016/09/14-01:09:01        ">
   <rdf:RDF xmlns:rdf="http://www.w3.org/1999/02/22-rdf-syntax-ns#">
      <rdf:Description rdf:about=""/>
   </rdf:RDF>
</x:xmpmeta>
                                                                                                    
                                                                                                    
                                                                                                    
                                                                                                    
                                                                                                    
                                                                                                    
                                                                                                    
                                                                                                    
                                                                                                    
                                                                                                    
                                                                                                    
                                                                                                    
                                                                                                    
                                                                                                    
                                                                                                    
                                                                                                    
                                                                                                    
                                                                                                    
                                                                                                    
                                                                                                    
                           
<?xpacket end="w"?></metadata>
<defs>
    <style>
      .cls-1 {
        fill: #4fb7e5;
      }

      .cls-2 {
        fill: #fff;
        fill-rule: evenodd;
      }
    </style>
  </defs>
  <circle class="cls-1" cx="160" cy="160" r="160"/>
  <path class="cls-2" d="M128.11,105.475h63.256S192.1,87.987,171.39,83.352l-11.1,11.061-8.879-11.061S128.5,84.314,128.11,105.475Z"/>
  <path class="cls-2" d="M114.793,114.324h91s5.924-1.553,3.053,6.814c-2.285,7.244-3.018,8.728-3.053,9.778s0.255,4.287-3.329,4.425h-3.329v36.5s-3.659,7.549-8.878,0V128.7H129.219V172.95s-4.543,7.462-8.878,0V135.341H115.9c-1.178,0-2.237-.294-2.219-4.425-0.59-6.32-.041-6.544-2.22-8.849S110.486,114.181,114.793,114.324Z"/>
  <path class="cls-2" d="M141.427,143.084h35.512s4.439,0.225,4.439,4.424-4.439,4.425-4.439,4.425H141.427s-3.33-.22-3.33-4.425S141.427,143.084,141.427,143.084Z"/>
  <path id="Shape_3_copy" data-name="Shape 3 copy" class="cls-2" d="M141.427,160.782h35.512s4.439,0.225,4.439,4.425-4.439,4.424-4.439,4.424H141.427s-3.33-.22-3.33-4.424S141.427,160.782,141.427,160.782ZM160.293,38a18.8,18.8,0,1,1-18.866,18.8A18.835,18.835,0,0,1,160.293,38Z"/>
  <path class="cls-2" d="M231.317,177.374a22.123,22.123,0,1,1,22.195-22.123A22.159,22.159,0,0,1,231.317,177.374Zm-143.158,0a22.123,22.123,0,1,1,22.2-22.123A22.159,22.159,0,0,1,88.159,177.374Z"/>
  <path id="Ellipse_2_copy" data-name="Ellipse 2 copy" class="cls-2" d="M231.317,133.128a22.123,22.123,0,1,1-22.195,22.123A22.159,22.159,0,0,1,231.317,133.128Zm0,0a22.123,22.123,0,1,1-22.195,22.123A22.159,22.159,0,0,1,231.317,133.128Z"/>
  <path class="cls-2" d="M127,236V218.3a4.135,4.135,0,0,0-4.439-4.425H51.537A4.135,4.135,0,0,0,47.1,218.3V236H36V214.983c0-10.965,9.988-9.955,9.988-9.955h3.329c0-19.264,22.2-22.123,22.2-22.123h31.073s22.2,2.859,22.2,22.123h3.33s9.987-1.01,9.987,9.955V236H127Z"/>
  <path id="Shape_4_copy" data-name="Shape 4 copy" class="cls-2" d="M271.268,236V218.3a4.135,4.135,0,0,0-4.439-4.425H195.805a4.135,4.135,0,0,0-4.439,4.425V236h-11.1V214.983c0-10.965,9.988-9.955,9.988-9.955h3.329c0-19.264,22.195-22.123,22.195-22.123H244.2c5.671-.309,19.452-11.966,28.179-21.017s15.844-23.739,17.756-25.441c3.048-2.714,16.946-6.1,11.685,13.157-7.547,30.353-32.771,45.667-32.771,55.424h3.33s9.988-1.01,9.988,9.955V236h-11.1Z"/>
</svg>
